<svg width="20" height="21" viewBox="0 0 20 21" fill="none" xmlns="http://www.w3.org/2000/svg">
<path d="M10 2.375C8.39303 2.375 6.82214 2.85152 5.486 3.74431C4.14985 4.6371 3.10844 5.90605 2.49348 7.3907C1.87852 8.87535 1.71762 10.509 2.03112 12.0851C2.34463 13.6612 3.11846 15.1089 4.25476 16.2452C5.39106 17.3815 6.8388 18.1554 8.41489 18.4689C9.99099 18.7824 11.6247 18.6215 13.1093 18.0065C14.594 17.3916 15.8629 16.3502 16.7557 15.014C17.6485 13.6779 18.125 12.107 18.125 10.5C18.1227 8.34581 17.266 6.28051 15.7427 4.75727C14.2195 3.23403 12.1542 2.37727 10 2.375ZM11.6922 13.1828C11.7503 13.2409 11.7963 13.3098 11.8277 13.3857C11.8592 13.4616 11.8754 13.5429 11.8754 13.625C11.8754 13.7071 11.8592 13.7884 11.8277 13.8643C11.7963 13.9402 11.7503 14.0091 11.6922 14.0672C11.6341 14.1253 11.5652 14.1713 11.4893 14.2027C11.4134 14.2342 11.3321 14.2503 11.25 14.2503C11.1679 14.2503 11.0866 14.2342 11.0107 14.2027C10.9348 14.1713 10.8659 14.1253 10.8078 14.0672L7.68282 10.9422C7.62471 10.8841 7.57861 10.8152 7.54715 10.7393C7.5157 10.6635 7.49951 10.5821 7.49951 10.5C7.49951 10.4179 7.5157 10.3365 7.54715 10.2607C7.57861 10.1848 7.62471 10.1159 7.68282 10.0578L10.8078 6.93281C10.8659 6.87474 10.9348 6.82868 11.0107 6.79725C11.0866 6.76583 11.1679 6.74965 11.25 6.74965C11.3321 6.74965 11.4134 6.76583 11.4893 6.79725C11.5652 6.82868 11.6341 6.87474 11.6922 6.93281C11.7503 6.99088 11.7963 7.05982 11.8277 7.13569C11.8592 7.21156 11.8754 7.29288 11.8754 7.375C11.8754 7.45712 11.8592 7.53844 11.8277 7.61431C11.7963 7.69018 11.7503 7.75912 11.6922 7.81719L9.0086 10.5L11.6922 13.1828Z" fill="#353535"/>
</svg>
