<svg width="18" height="18" viewBox="0 0 18 18" fill="none" xmlns="http://www.w3.org/2000/svg">
<path d="M14.625 2.25H3.375C3.07663 2.25 2.79048 2.36853 2.5795 2.5795C2.36853 2.79048 2.25 3.07663 2.25 3.375V14.625C2.25 14.9234 2.36853 15.2095 2.5795 15.4205C2.79048 15.6315 3.07663 15.75 3.375 15.75H14.625C14.9234 15.75 15.2095 15.6315 15.4205 15.4205C15.6315 15.2095 15.75 14.9234 15.75 14.625V3.375C15.75 3.07663 15.6315 2.79048 15.4205 2.5795C15.2095 2.36853 14.9234 2.25 14.625 2.25ZM10.6875 11.8125C10.8367 11.8125 10.9798 11.8718 11.0852 11.9773C11.1907 12.0827 11.25 12.2258 11.25 12.375C11.25 12.5242 11.1907 12.6673 11.0852 12.7727C10.9798 12.8782 10.8367 12.9375 10.6875 12.9375H7.3125C7.20804 12.9375 7.10564 12.9084 7.01678 12.8535C6.92791 12.7986 6.8561 12.72 6.80938 12.6266C6.76267 12.5331 6.74289 12.4285 6.75227 12.3245C6.76165 12.2204 6.79982 12.1211 6.8625 12.0375L9.89789 7.99031C9.99508 7.86079 10.0632 7.71181 10.0975 7.55355C10.1318 7.3953 10.1316 7.2315 10.0968 7.07335C10.062 6.91519 9.99344 6.76642 9.89586 6.63719C9.79828 6.50795 9.67396 6.40131 9.53137 6.32454C9.38879 6.24778 9.23132 6.20269 9.06971 6.19238C8.9081 6.18207 8.74618 6.20676 8.59499 6.26478C8.44381 6.3228 8.30693 6.41277 8.19371 6.52855C8.08049 6.64432 7.99361 6.78318 7.93898 6.93562C7.88919 7.07632 7.78555 7.19148 7.65085 7.25576C7.51616 7.32005 7.36144 7.32819 7.22074 7.2784C7.08004 7.22861 6.96489 7.12496 6.9006 6.99027C6.83632 6.85557 6.82818 6.70086 6.87797 6.56016C6.98648 6.25468 7.15972 5.97626 7.38582 5.74395C7.61193 5.51165 7.88557 5.33094 8.188 5.21422C8.49043 5.09749 8.81451 5.04749 9.13806 5.06764C9.46161 5.08779 9.77698 5.17763 10.0626 5.33098C10.3482 5.48434 10.5973 5.69761 10.7928 5.95618C10.9884 6.21475 11.1257 6.51251 11.1955 6.8291C11.2652 7.14568 11.2658 7.47359 11.197 7.7904C11.1283 8.1072 10.9919 8.40541 10.7972 8.66461L8.4375 11.8125H10.6875Z" fill="#817C7C"/>
</svg>
