<svg width="18" height="18" viewBox="0 0 18 18" fill="none" xmlns="http://www.w3.org/2000/svg">
<path d="M14.625 2.25H3.375C3.07663 2.25 2.79048 2.36853 2.5795 2.5795C2.36853 2.79048 2.25 3.07663 2.25 3.375V14.625C2.25 14.9234 2.36853 15.2095 2.5795 15.4205C2.79048 15.6315 3.07663 15.75 3.375 15.75H14.625C14.9234 15.75 15.2095 15.6315 15.4205 15.4205C15.6315 15.2095 15.75 14.9234 15.75 14.625V3.375C15.75 3.07663 15.6315 2.79048 15.4205 2.5795C15.2095 2.36853 14.9234 2.25 14.625 2.25ZM9.84375 12.375C9.84375 12.5242 9.78449 12.6673 9.679 12.7727C9.57351 12.8782 9.43043 12.9375 9.28125 12.9375C9.13207 12.9375 8.98899 12.8782 8.8835 12.7727C8.77801 12.6673 8.71875 12.5242 8.71875 12.375V6.67969L7.90594 7.2218C7.84444 7.26279 7.77547 7.29128 7.70297 7.30562C7.63047 7.31996 7.55585 7.31989 7.48338 7.30539C7.4109 7.2909 7.34199 7.26227 7.28058 7.22114C7.21917 7.18002 7.16647 7.1272 7.12547 7.0657C7.08447 7.00421 7.05599 6.93524 7.04165 6.86274C7.0273 6.79023 7.02738 6.71561 7.04188 6.64314C7.05637 6.57067 7.085 6.50176 7.12612 6.44035C7.16725 6.37894 7.22007 6.32623 7.28156 6.28523L8.96906 5.16023C9.05355 5.10386 9.15172 5.07142 9.25315 5.06635C9.35459 5.06127 9.45551 5.08376 9.5452 5.13141C9.63489 5.17907 9.71 5.25012 9.76256 5.33702C9.81513 5.42392 9.84318 5.52344 9.84375 5.625V12.375Z" fill="#817C7C"/>
</svg>
