<svg width="16" height="17" viewBox="0 0 16 17" fill="none" xmlns="http://www.w3.org/2000/svg">
<path d="M8 2C6.71442 2 5.45772 2.38122 4.3888 3.09545C3.31988 3.80968 2.48676 4.82484 1.99479 6.01256C1.50282 7.20028 1.37409 8.50721 1.6249 9.76809C1.8757 11.029 2.49477 12.1872 3.40381 13.0962C4.31285 14.0052 5.47104 14.6243 6.73192 14.8751C7.99279 15.1259 9.29973 14.9972 10.4874 14.5052C11.6752 14.0132 12.6903 13.1801 13.4046 12.1112C14.1188 11.0423 14.5 9.78558 14.5 8.5C14.4982 6.77665 13.8128 5.12441 12.5942 3.90582C11.3756 2.68722 9.72335 2.00182 8 2ZM8 14C6.91221 14 5.84884 13.6774 4.94437 13.0731C4.0399 12.4687 3.33495 11.6098 2.91867 10.6048C2.50238 9.59977 2.39347 8.4939 2.60568 7.427C2.8179 6.36011 3.34173 5.3801 4.11092 4.61091C4.8801 3.84172 5.86011 3.3179 6.92701 3.10568C7.9939 2.89346 9.09977 3.00238 10.1048 3.41866C11.1098 3.83494 11.9687 4.53989 12.5731 5.44436C13.1774 6.34883 13.5 7.4122 13.5 8.5C13.4983 9.95818 12.9184 11.3562 11.8873 12.3873C10.8562 13.4184 9.45819 13.9983 8 14ZM11 8.5C11 8.63261 10.9473 8.75979 10.8536 8.85355C10.7598 8.94732 10.6326 9 10.5 9H8.5V11C8.5 11.1326 8.44732 11.2598 8.35356 11.3536C8.25979 11.4473 8.13261 11.5 8 11.5C7.86739 11.5 7.74022 11.4473 7.64645 11.3536C7.55268 11.2598 7.5 11.1326 7.5 11V9H5.5C5.36739 9 5.24022 8.94732 5.14645 8.85355C5.05268 8.75979 5 8.63261 5 8.5C5 8.36739 5.05268 8.24021 5.14645 8.14645C5.24022 8.05268 5.36739 8 5.5 8H7.5V6C7.5 5.86739 7.55268 5.74021 7.64645 5.64645C7.74022 5.55268 7.86739 5.5 8 5.5C8.13261 5.5 8.25979 5.55268 8.35356 5.64645C8.44732 5.74021 8.5 5.86739 8.5 6V8H10.5C10.6326 8 10.7598 8.05268 10.8536 8.14645C10.9473 8.24021 11 8.36739 11 8.5Z" fill="#19377C"/>
</svg>
