<svg width="120" height="120" viewBox="0 0 120 120" fill="none" xmlns="http://www.w3.org/2000/svg">
<rect x="1.5" y="1.5" width="117" height="117" rx="58.5" fill="#F5F5F5"/>
<rect x="1.5" y="1.5" width="117" height="117" rx="58.5" stroke="white" stroke-width="3"/>
<path d="M60.0003 32.9167C54.6438 32.9167 49.4075 34.5051 44.9536 37.481C40.4998 40.457 37.0285 44.6868 34.9786 49.6357C32.9287 54.5845 32.3924 60.03 33.4374 65.2837C34.4824 70.5374 37.0619 75.3631 40.8495 79.1508C44.6372 82.9385 49.463 85.5179 54.7166 86.5629C59.9703 87.608 65.4158 87.0716 70.3647 85.0217C75.3135 82.9719 79.5433 79.5005 82.5193 75.0467C85.4953 70.5929 87.0837 65.3566 87.0837 60C87.0761 52.8194 84.2202 45.935 79.1428 40.8576C74.0653 35.7801 67.181 32.9243 60.0003 32.9167ZM45.9587 78.099C47.4658 75.7419 49.542 73.8021 51.996 72.4585C54.4499 71.1148 57.2026 70.4106 60.0003 70.4106C62.7981 70.4106 65.5508 71.1148 68.0047 72.4585C70.4587 73.8021 72.5349 75.7419 74.042 78.099C70.0273 81.2213 65.0863 82.9165 60.0003 82.9165C54.9143 82.9165 49.9734 81.2213 45.9587 78.099ZM51.667 57.9167C51.667 56.2685 52.1557 54.6573 53.0714 53.2869C53.9871 51.9165 55.2886 50.8484 56.8113 50.2177C58.334 49.5869 60.0096 49.4219 61.6261 49.7435C63.2426 50.065 64.7275 50.8587 65.8929 52.0241C67.0583 53.1896 67.852 54.6744 68.1735 56.2909C68.4951 57.9074 68.3301 59.583 67.6993 61.1057C67.0686 62.6284 66.0005 63.9299 64.6301 64.8456C63.2597 65.7613 61.6485 66.25 60.0003 66.25C57.7902 66.25 55.6706 65.372 54.1078 63.8092C52.545 62.2464 51.667 60.1268 51.667 57.9167ZM77.1253 75.2109C74.8018 71.844 71.5347 69.2391 67.7347 67.724C69.7759 66.1163 71.2654 63.9125 71.996 61.419C72.7266 58.9255 72.662 56.2664 71.8113 53.8113C70.9606 51.3563 69.3659 49.2273 67.2491 47.7206C65.1323 46.2138 62.5986 45.4041 60.0003 45.4041C57.402 45.4041 54.8683 46.2138 52.7515 47.7206C50.6348 49.2273 49.0401 51.3563 48.1894 53.8113C47.3386 56.2664 47.2741 58.9255 48.0047 61.419C48.7353 63.9125 50.2248 66.1163 52.266 67.724C48.466 69.2391 45.1989 71.844 42.8753 75.2109C39.9393 71.9093 38.0203 67.8293 37.3494 63.4622C36.6785 59.0952 37.2843 54.6273 39.0939 50.5966C40.9034 46.5659 43.8396 43.1442 47.5488 40.7436C51.258 38.343 55.5821 37.0657 60.0003 37.0657C64.4186 37.0657 68.7427 38.343 72.4519 40.7436C76.1611 43.1442 79.0972 46.5659 80.9068 50.5966C82.7164 54.6273 83.3222 59.0952 82.6513 63.4622C81.9804 67.8293 80.0614 71.9093 77.1253 75.2109Z" fill="#817C7C"/>
</svg>
