<svg width="40" height="40" viewBox="0 0 40 40" fill="none" xmlns="http://www.w3.org/2000/svg">
<rect x="0.5" y="0.5" width="39" height="39" rx="19.5" fill="#F5F5F5"/>
<rect x="0.5" y="0.5" width="39" height="39" rx="19.5" stroke="white"/>
<path d="M19.9995 10.9722C18.2139 10.9722 16.4685 11.5017 14.9839 12.4937C13.4993 13.4857 12.3422 14.8956 11.6589 16.5452C10.9756 18.1948 10.7968 20.01 11.1451 21.7612C11.4935 23.5125 12.3533 25.1211 13.6159 26.3836C14.8784 27.6462 16.487 28.506 18.2382 28.8543C19.9894 29.2027 21.8046 29.0239 23.4542 28.3406C25.1039 27.6573 26.5138 26.5002 27.5058 25.0156C28.4978 23.531 29.0272 21.7855 29.0272 20C29.0247 17.6065 28.0728 15.3117 26.3803 13.6192C24.6878 11.9267 22.393 10.9748 19.9995 10.9722ZM15.3189 26.033C15.8213 25.2473 16.5134 24.6007 17.3313 24.1528C18.1493 23.705 19.0669 23.4702 19.9995 23.4702C20.932 23.4702 21.8496 23.705 22.6676 24.1528C23.4856 24.6007 24.1776 25.2473 24.68 26.033C23.3418 27.0738 21.6948 27.6388 19.9995 27.6388C18.3041 27.6388 16.6572 27.0738 15.3189 26.033ZM17.2217 19.3056C17.2217 18.7562 17.3846 18.2191 17.6898 17.7623C17.995 17.3055 18.4289 16.9495 18.9365 16.7392C19.444 16.529 20.0025 16.474 20.5414 16.5812C21.0802 16.6883 21.5752 16.9529 21.9636 17.3414C22.3521 17.7299 22.6167 18.2248 22.7239 18.7636C22.831 19.3025 22.776 19.861 22.5658 20.3686C22.3555 20.8761 21.9995 21.31 21.5427 21.6152C21.0859 21.9204 20.5489 22.0833 19.9995 22.0833C19.2627 22.0833 18.5562 21.7907 18.0353 21.2697C17.5143 20.7488 17.2217 20.0423 17.2217 19.3056ZM25.7078 25.0703C24.9333 23.948 23.8442 23.0797 22.5776 22.5747C23.258 22.0388 23.7545 21.3042 23.998 20.473C24.2415 19.6419 24.22 18.7555 23.9365 17.9371C23.6529 17.1188 23.1213 16.4091 22.4157 15.9069C21.7101 15.4046 20.8656 15.1347 19.9995 15.1347C19.1334 15.1347 18.2888 15.4046 17.5832 15.9069C16.8776 16.4091 16.3461 17.1188 16.0625 17.9371C15.7789 18.7555 15.7574 19.6419 16.0009 20.473C16.2445 21.3042 16.7409 22.0388 17.4213 22.5747C16.1547 23.0797 15.0656 23.948 14.2911 25.0703C13.3125 23.9698 12.6728 22.6098 12.4492 21.1541C12.2255 19.6984 12.4275 18.2091 13.0306 16.8655C13.6338 15.522 14.6125 14.3814 15.8489 13.5812C17.0853 12.781 18.5267 12.3553 19.9995 12.3553C21.4722 12.3553 22.9136 12.781 24.15 13.5812C25.3864 14.3814 26.3651 15.522 26.9683 16.8655C27.5715 18.2091 27.7734 19.6984 27.5498 21.1541C27.3261 22.6098 26.6865 23.9698 25.7078 25.0703Z" fill="#817C7C"/>
</svg>
