<svg width="17" height="16" viewBox="0 0 17 16" fill="none" xmlns="http://www.w3.org/2000/svg">
<path d="M14.8538 13.6463L11.7244 10.5175C12.6314 9.42859 13.0837 8.03189 12.9872 6.61798C12.8906 5.20407 12.2527 3.88181 11.2061 2.92625C10.1595 1.9707 8.7848 1.45543 7.36796 1.48763C5.95113 1.51983 4.60125 2.09702 3.59913 3.09913C2.59702 4.10125 2.01983 5.45113 1.98763 6.86796C1.95543 8.2848 2.4707 9.65951 3.42625 10.7061C4.38181 11.7527 5.70407 12.3906 7.11798 12.4872C8.53189 12.5837 9.92859 12.1314 11.0175 11.2244L14.1463 14.3538C14.1927 14.4002 14.2479 14.4371 14.3086 14.4622C14.3693 14.4874 14.4343 14.5003 14.5 14.5003C14.5657 14.5003 14.6308 14.4874 14.6915 14.4622C14.7522 14.4371 14.8073 14.4002 14.8538 14.3538C14.9002 14.3073 14.9371 14.2522 14.9622 14.1915C14.9874 14.1308 15.0003 14.0657 15.0003 14C15.0003 13.9343 14.9874 13.8693 14.9622 13.8086C14.9371 13.7479 14.9002 13.6927 14.8538 13.6463ZM3.00002 7.00002C3.00002 6.11 3.26394 5.23998 3.75841 4.49995C4.25287 3.75993 4.95568 3.18316 5.77795 2.84256C6.60021 2.50197 7.50501 2.41285 8.37793 2.58649C9.25084 2.76012 10.0527 3.1887 10.682 3.81804C11.3113 4.44738 11.7399 5.2492 11.9136 6.12211C12.0872 6.99503 11.9981 7.89983 11.6575 8.7221C11.3169 9.54436 10.7401 10.2472 10.0001 10.7416C9.26007 11.2361 8.39004 11.5 7.50002 11.5C6.30695 11.4987 5.16313 11.0242 4.3195 10.1805C3.47587 9.33691 3.00134 8.19309 3.00002 7.00002Z" fill="#817C7C"/>
</svg>
