<svg width="12" height="12" viewBox="0 0 12 12" fill="none" xmlns="http://www.w3.org/2000/svg">
<path d="M8.24999 7.875H3.74999C3.67578 7.87494 3.60322 7.8969 3.5415 7.9381C3.47977 7.97931 3.43166 8.0379 3.40326 8.10645C3.37485 8.17501 3.36742 8.25046 3.38192 8.32324C3.39641 8.39602 3.43217 8.46287 3.48468 8.51531L5.73468 10.7653C5.7695 10.8002 5.81086 10.8278 5.85639 10.8467C5.90191 10.8656 5.95071 10.8753 5.99999 10.8753C6.04927 10.8753 6.09807 10.8656 6.14359 10.8467C6.18912 10.8278 6.23048 10.8002 6.2653 10.7653L8.5153 8.51531C8.56781 8.46287 8.60357 8.39602 8.61806 8.32324C8.63256 8.25046 8.62513 8.17501 8.59672 8.10645C8.56832 8.0379 8.52021 7.97931 8.45848 7.9381C8.39676 7.8969 8.3242 7.87494 8.24999 7.875Z" fill="#343330" fill-opacity="0.42"/>
<path d="M3.4036 3.89344C3.37517 3.82492 3.3677 3.74952 3.38214 3.67676C3.39657 3.604 3.43226 3.53716 3.48469 3.48468L5.73469 1.23468C5.76952 1.19982 5.81087 1.17216 5.8564 1.15329C5.90192 1.13442 5.95072 1.1247 6 1.1247C6.04928 1.1247 6.09808 1.13442 6.1436 1.15329C6.18913 1.17216 6.23049 1.19982 6.26531 1.23468L8.51531 3.48468C8.56782 3.53713 8.60358 3.60398 8.61807 3.67676C8.63257 3.74954 8.62514 3.82499 8.59673 3.89354C8.56833 3.9621 8.52022 4.02069 8.45849 4.06189C8.39677 4.10309 8.32421 4.12506 8.25 4.125H3.75C3.67583 4.12498 3.60334 4.10297 3.54168 4.06176C3.48002 4.02054 3.43196 3.96196 3.4036 3.89344Z" fill="#353535"/>
</svg>
