<svg width="12" height="12" viewBox="0 0 12 12" fill="none" xmlns="http://www.w3.org/2000/svg">
<path d="M3.40358 3.89343C3.37516 3.82492 3.36769 3.74952 3.38213 3.67676C3.39656 3.604 3.43225 3.53716 3.48468 3.48468L5.73468 1.23468C5.7695 1.19982 5.81086 1.17216 5.85639 1.15329C5.90191 1.13442 5.95071 1.1247 5.99999 1.1247C6.04927 1.1247 6.09807 1.13442 6.14359 1.15329C6.18912 1.17216 6.23048 1.19982 6.2653 1.23468L8.5153 3.48468C8.56781 3.53713 8.60357 3.60398 8.61806 3.67676C8.63256 3.74954 8.62513 3.82499 8.59672 3.89354C8.56832 3.9621 8.52021 4.02069 8.45848 4.06189C8.39676 4.10309 8.3242 4.12506 8.24999 4.125H3.74999C3.67582 4.12498 3.60333 4.10297 3.54167 4.06176C3.48001 4.02054 3.43195 3.96196 3.40358 3.89343ZM8.24999 7.875H3.74999C3.67578 7.87494 3.60322 7.8969 3.5415 7.9381C3.47977 7.9793 3.43166 8.03789 3.40326 8.10645C3.37485 8.17501 3.36742 8.25046 3.38192 8.32324C3.39641 8.39602 3.43217 8.46286 3.48468 8.51531L5.73468 10.7653C5.7695 10.8002 5.81086 10.8278 5.85639 10.8467C5.90191 10.8656 5.95071 10.8753 5.99999 10.8753C6.04927 10.8753 6.09807 10.8656 6.14359 10.8467C6.18912 10.8278 6.23048 10.8002 6.2653 10.7653L8.5153 8.51531C8.56781 8.46286 8.60357 8.39602 8.61806 8.32324C8.63256 8.25046 8.62513 8.17501 8.59672 8.10645C8.56832 8.03789 8.52021 7.9793 8.45848 7.9381C8.39676 7.8969 8.3242 7.87494 8.24999 7.875Z" fill="#343330" fill-opacity="0.42"/>
</svg>
